# xmcd
#
# Track frame offsets:
#	150
#	25763
#	44425
#	62824
#	76300
#	88017
#	103064
#	117213
#	130796
#	145521
#	158435
#	173458
#	185617
#	199448
#	213223
#	227489
#	239894
#	256687
#	277194
#	295505
#	313527
#	332919
#
# Disc length: 4690 seconds
#
# Revision: 1
# Processed by: cddbd v1.5.1PL0 Copyright (c) Steve Scherf et al.
# Submitted via: audiograbber 1.83.01
#
DISCID=33125016
DTITLE=Pete Johnson - Hey! Piano Man - CD 3
DYEAR=1900
DGENRE=Boogie Woogie
TTITLE0=Dying Mother Blues
TTITLE1=Fo' O'Clock Blues
TTITLE2=Roll 'em
TTITLE3=Boo Woo
TTITLE4=Home, James
TTITLE5=Shuffle Boogie
TTITLE6=Lone Star Blues
TTITLE7=Buss Robinson Blues
TTITLE8=B&O Blues
TTITLE9=How Long, How Long
TTITLE10=Climbin' and Screamin'
TTITLE11=Buss Robinson Blues
TTITLE12=Pete's Blues
TTITLE13=Let 'em Jump
TTITLE14=Pete's Blues No.2
TTITLE15=Boogie Woogie
TTITLE16=Vine Street Bustle
TTITLE17=Some Day Blues
TTITLE18=Holler Stomp
TTITLE19=Barrelhouse Breakdown
TTITLE20=Kansas City Farewell
TTITLE21=You Don't Know My Mind
EXTD=
EXTT0=
EXTT1=
EXTT2=
EXTT3=
EXTT4=
EXTT5=
EXTT6=
EXTT7=
EXTT8=
EXTT9=
EXTT10=
EXTT11=
EXTT12=
EXTT13=
EXTT14=
EXTT15=
EXTT16=
EXTT17=
EXTT18=
EXTT19=
EXTT20=
EXTT21=
PLAYORDER=
